<svg id="visual" viewBox="0 0 3840 2160" width="3840" height="2160" xmlns="http://www.w3.org/2000/svg" xmlns:xlink="http://www.w3.org/1999/xlink" version="1.1"><rect x="0" y="0" width="3840" height="2160" fill="#001122"></rect><defs><linearGradient id="grad1_0" x1="43.8%" y1="0%" x2="100%" y2="100%"><stop offset="14.444444444444446%" stop-color="#0288d1" stop-opacity="1"></stop><stop offset="85.55555555555554%" stop-color="#0288d1" stop-opacity="1"></stop></linearGradient></defs><defs><linearGradient id="grad1_1" x1="43.8%" y1="0%" x2="100%" y2="100%"><stop offset="14.444444444444446%" stop-color="#0288d1" stop-opacity="1"></stop><stop offset="85.55555555555554%" stop-color="#0b72b1" stop-opacity="1"></stop></linearGradient></defs><defs><linearGradient id="grad1_2" x1="43.8%" y1="0%" x2="100%" y2="100%"><stop offset="14.444444444444446%" stop-color="#0d5d91" stop-opacity="1"></stop><stop offset="85.55555555555554%" stop-color="#0b72b1" stop-opacity="1"></stop></linearGradient></defs><defs><linearGradient id="grad1_3" x1="43.8%" y1="0%" x2="100%" y2="100%"><stop offset="14.444444444444446%" stop-color="#0d5d91" stop-opacity="1"></stop><stop offset="85.55555555555554%" stop-color="#0c4873" stop-opacity="1"></stop></linearGradient></defs><defs><linearGradient id="grad1_4" x1="43.8%" y1="0%" x2="100%" y2="100%"><stop offset="14.444444444444446%" stop-color="#093556" stop-opacity="1"></stop><stop offset="85.55555555555554%" stop-color="#0c4873" stop-opacity="1"></stop></linearGradient></defs><defs><linearGradient id="grad1_5" x1="43.8%" y1="0%" x2="100%" y2="100%"><stop offset="14.444444444444446%" stop-color="#093556" stop-opacity="1"></stop><stop offset="85.55555555555554%" stop-color="#05233b" stop-opacity="1"></stop></linearGradient></defs><defs><linearGradient id="grad1_6" x1="43.8%" y1="0%" x2="100%" y2="100%"><stop offset="14.444444444444446%" stop-color="#001122" stop-opacity="1"></stop><stop offset="85.55555555555554%" stop-color="#05233b" stop-opacity="1"></stop></linearGradient></defs><defs><linearGradient id="grad2_0" x1="0%" y1="0%" x2="56.3%" y2="100%"><stop offset="14.444444444444446%" stop-color="#0288d1" stop-opacity="1"></stop><stop offset="85.55555555555554%" stop-color="#0288d1" stop-opacity="1"></stop></linearGradient></defs><defs><linearGradient id="grad2_1" x1="0%" y1="0%" x2="56.3%" y2="100%"><stop offset="14.444444444444446%" stop-color="#0b72b1" stop-opacity="1"></stop><stop offset="85.55555555555554%" stop-color="#0288d1" stop-opacity="1"></stop></linearGradient></defs><defs><linearGradient id="grad2_2" x1="0%" y1="0%" x2="56.3%" y2="100%"><stop offset="14.444444444444446%" stop-color="#0b72b1" stop-opacity="1"></stop><stop offset="85.55555555555554%" stop-color="#0d5d91" stop-opacity="1"></stop></linearGradient></defs><defs><linearGradient id="grad2_3" x1="0%" y1="0%" x2="56.3%" y2="100%"><stop offset="14.444444444444446%" stop-color="#0c4873" stop-opacity="1"></stop><stop offset="85.55555555555554%" stop-color="#0d5d91" stop-opacity="1"></stop></linearGradient></defs><defs><linearGradient id="grad2_4" x1="0%" y1="0%" x2="56.3%" y2="100%"><stop offset="14.444444444444446%" stop-color="#0c4873" stop-opacity="1"></stop><stop offset="85.55555555555554%" stop-color="#093556" stop-opacity="1"></stop></linearGradient></defs><defs><linearGradient id="grad2_5" x1="0%" y1="0%" x2="56.3%" y2="100%"><stop offset="14.444444444444446%" stop-color="#05233b" stop-opacity="1"></stop><stop offset="85.55555555555554%" stop-color="#093556" stop-opacity="1"></stop></linearGradient></defs><defs><linearGradient id="grad2_6" x1="0%" y1="0%" x2="56.3%" y2="100%"><stop offset="14.444444444444446%" stop-color="#05233b" stop-opacity="1"></stop><stop offset="85.55555555555554%" stop-color="#001122" stop-opacity="1"></stop></linearGradient></defs><g transform="translate(3840, 0)"><path d="M0 1836C-324.9 1790.1 -649.7 1744.3 -918 1590C-1186.3 1435.8 -1398 1173.1 -1541.5 890C-1685.1 606.9 -1760.5 303.5 -1836 0L0 0Z" fill="#041a2e"></path><path d="M0 1573.7C-278.5 1534.4 -556.9 1495.1 -786.9 1362.9C-1016.8 1230.6 -1198.2 1005.5 -1321.3 762.9C-1444.4 520.2 -1509 260.1 -1573.7 0L0 0Z" fill="#072c49"></path><path d="M0 1311.4C-232 1278.7 -464.1 1245.9 -655.7 1135.7C-847.3 1025.5 -998.5 837.9 -1101.1 635.7C-1203.6 433.5 -1257.5 216.8 -1311.4 0L0 0Z" fill="#0b3f65"></path><path d="M0 1049.1C-185.6 1022.9 -371.3 996.7 -524.6 908.6C-677.9 820.4 -798.8 670.3 -880.9 508.6C-962.9 346.8 -1006 173.4 -1049.1 0L0 0Z" fill="#0d5382"></path><path d="M0 786.9C-139.2 767.2 -278.5 747.6 -393.4 681.4C-508.4 615.3 -599.1 502.7 -660.7 381.4C-722.2 260.1 -754.5 130.1 -786.9 0L0 0Z" fill="#0c67a1"></path><path d="M0 524.6C-92.8 511.5 -185.6 498.4 -262.3 454.3C-338.9 410.2 -399.4 335.2 -440.4 254.3C-481.5 173.4 -503 86.7 -524.6 0L0 0Z" fill="#077dc1"></path><path d="M0 262.3C-46.4 255.7 -92.8 249.2 -131.1 227.1C-169.5 205.1 -199.7 167.6 -220.2 127.1C-240.7 86.7 -251.5 43.4 -262.3 0L0 0Z" fill="#0288d1"></path></g><g transform="translate(0, 2160)"><path d="M0 -1836C327.8 -1791.8 655.5 -1747.6 918 -1590C1180.5 -1432.4 1377.7 -1161.4 1519.9 -877.5C1662 -593.6 1749 -296.8 1836 0L0 0Z" fill="#041a2e"></path><path d="M0 -1573.7C280.9 -1535.8 561.9 -1498 786.9 -1362.9C1011.9 -1227.8 1180.9 -995.5 1302.7 -752.1C1424.6 -508.8 1499.1 -254.4 1573.7 0L0 0Z" fill="#072c49"></path><path d="M0 -1311.4C234.1 -1279.9 468.2 -1248.3 655.7 -1135.7C843.2 -1023.2 984.1 -829.6 1085.6 -626.8C1187.1 -424 1249.3 -212 1311.4 0L0 0Z" fill="#0b3f65"></path><path d="M0 -1049.1C187.3 -1023.9 374.6 -998.6 524.6 -908.6C674.6 -818.5 787.3 -663.7 868.5 -501.4C949.7 -339.2 999.4 -169.6 1049.1 0L0 0Z" fill="#0d5382"></path><path d="M0 -786.9C140.5 -767.9 280.9 -749 393.4 -681.4C505.9 -613.9 590.5 -497.7 651.4 -376.1C712.3 -254.4 749.6 -127.2 786.9 0L0 0Z" fill="#0c67a1"></path><path d="M0 -524.6C93.6 -511.9 187.3 -499.3 262.3 -454.3C337.3 -409.3 393.6 -331.8 434.2 -250.7C474.9 -169.6 499.7 -84.8 524.6 0L0 0Z" fill="#077dc1"></path><path d="M0 -262.3C46.8 -256 93.6 -249.7 131.1 -227.1C168.6 -204.6 196.8 -165.9 217.1 -125.4C237.4 -84.8 249.9 -42.4 262.3 0L0 0Z" fill="#0288d1"></path></g></svg>